# xmcd
#
# Track frame offsets: 
#        150
#        13562
#        30399
#        46239
#        66057
#        86955
#        111554
#        133234
#        153150
#        168795
#        206902
#        231856
#        254848
#        273169
#        286152
#        301799
#        323723
#
# Disc length: 4496 seconds
#
# Revision: 1
# Processed by: cddbd v1.5.2PL0 Copyright (c) Steve Scherf et al.
# Submitted via: ExactAudioCopy v0.99pb3
#
DISCID=eb118e11
DTITLE=Dag Vag - Klassiker CD2
DYEAR=2007
DGENRE=Rock
TTITLE0=En Del Av Dig
TTITLE1=Musik
TTITLE2=Idioterna
TTITLE3=Lång Väg
TTITLE4=Tiden Jagar Oss Alla
TTITLE5=Pär I Hagen
TTITLE6=Himmel and Helvete
TTITLE7=Efter Midnatt
TTITLE8=Törst
TTITLE9=Atomsviten
TTITLE10=Om Döden
TTITLE11=Jag Vaknade Upp
TTITLE12=Tjockhult
TTITLE13=Sånt Är Livet
TTITLE14=Hellre En Raket
TTITLE15=Snorbloos
TTITLE16=Intervju Med Dag Vag
EXTD=
EXTT0=
EXTT1=
EXTT2=
EXTT3=
EXTT4=
EXTT5=
EXTT6=
EXTT7=
EXTT8=
EXTT9=
EXTT10=
EXTT11=
EXTT12=
EXTT13=
EXTT14=
EXTT15=
EXTT16=
PLAYORDER=
